<mxfile host="app.diagrams.net" modified="2023-09-23T08:42:58.842Z" agent="Mozilla/5.0 (Windows NT 10.0; Win64; x64) AppleWebKit/537.36 (KHTML, like Gecko) Chrome/116.0.0.0 Safari/537.36" etag="5elqUeUz1UCROEs5ooDj" version="21.7.5" type="device">
  <diagram name="Page-1" id="9f46799a-70d6-7492-0946-bef42562c5a5">
    <mxGraphModel dx="954" dy="610" grid="1" gridSize="10" guides="1" tooltips="1" connect="1" arrows="1" fold="1" page="1" pageScale="1" pageWidth="1100" pageHeight="850" background="none" math="0" shadow="0">
      <root>
        <mxCell id="0" />
        <mxCell id="1" parent="0" />
        <mxCell id="D7ge4e6ua518F_ma1OPR-1" value="OrdersRepository" style="swimlane;childLayout=stackLayout;horizontal=1;startSize=50;horizontalStack=0;rounded=1;fontSize=14;fontStyle=0;strokeWidth=2;resizeParent=0;resizeLast=1;shadow=0;dashed=0;align=center;arcSize=4;whiteSpace=wrap;html=1;" parent="1" vertex="1">
          <mxGeometry x="100" y="390" width="120" height="120" as="geometry" />
        </mxCell>
        <mxCell id="D7ge4e6ua518F_ma1OPR-2" value="db: File" style="align=left;strokeColor=none;fillColor=none;spacingLeft=4;fontSize=12;verticalAlign=top;resizable=0;rotatable=0;part=1;html=1;" parent="D7ge4e6ua518F_ma1OPR-1" vertex="1">
          <mxGeometry y="50" width="120" height="70" as="geometry" />
        </mxCell>
        <mxCell id="D7ge4e6ua518F_ma1OPR-18" value="Order" style="swimlane;childLayout=stackLayout;horizontal=1;startSize=50;horizontalStack=0;rounded=1;fontSize=14;fontStyle=0;strokeWidth=2;resizeParent=0;resizeLast=1;shadow=0;dashed=0;align=center;arcSize=4;whiteSpace=wrap;html=1;" parent="1" vertex="1">
          <mxGeometry x="360" y="400" width="140" height="150" as="geometry" />
        </mxCell>
        <mxCell id="D7ge4e6ua518F_ma1OPR-19" value="- id: int&lt;br&gt;+ table: Table&lt;br&gt;+ clients: Array&amp;lt;Human&amp;gt;&lt;br&gt;+ data: OrdersData&lt;br&gt;+ price: int&lt;br&gt;-&amp;nbsp; customer: Human" style="align=left;strokeColor=none;fillColor=none;spacingLeft=4;fontSize=12;verticalAlign=top;resizable=0;rotatable=0;part=1;html=1;" parent="D7ge4e6ua518F_ma1OPR-18" vertex="1">
          <mxGeometry y="50" width="140" height="100" as="geometry" />
        </mxCell>
        <mxCell id="D7ge4e6ua518F_ma1OPR-21" value="Table" style="swimlane;childLayout=stackLayout;horizontal=1;startSize=50;horizontalStack=0;rounded=1;fontSize=14;fontStyle=0;strokeWidth=2;resizeParent=0;resizeLast=1;shadow=0;dashed=0;align=center;arcSize=4;whiteSpace=wrap;html=1;" parent="1" vertex="1">
          <mxGeometry x="620" y="415" width="100" height="120" as="geometry" />
        </mxCell>
        <mxCell id="D7ge4e6ua518F_ma1OPR-22" value="- number: int&lt;br&gt;- capaсity: int&lt;br&gt;- isVIP: boolean&lt;br&gt;- color: string" style="align=left;strokeColor=none;fillColor=none;spacingLeft=4;fontSize=12;verticalAlign=top;resizable=0;rotatable=0;part=1;html=1;" parent="D7ge4e6ua518F_ma1OPR-21" vertex="1">
          <mxGeometry y="50" width="100" height="70" as="geometry" />
        </mxCell>
        <mxCell id="D7ge4e6ua518F_ma1OPR-23" value="Human" style="swimlane;childLayout=stackLayout;horizontal=1;startSize=50;horizontalStack=0;rounded=1;fontSize=14;fontStyle=0;strokeWidth=2;resizeParent=0;resizeLast=1;shadow=0;dashed=0;align=center;arcSize=4;whiteSpace=wrap;html=1;" parent="1" vertex="1">
          <mxGeometry x="95" y="90" width="170" height="120" as="geometry" />
        </mxCell>
        <mxCell id="D7ge4e6ua518F_ma1OPR-24" value="- fullname: string&lt;br&gt;- age: int&lt;br&gt;- gender: char&lt;br&gt;- isCustomer: boolean" style="align=left;strokeColor=none;fillColor=none;spacingLeft=4;fontSize=12;verticalAlign=top;resizable=0;rotatable=0;part=1;html=1;" parent="D7ge4e6ua518F_ma1OPR-23" vertex="1">
          <mxGeometry y="50" width="170" height="70" as="geometry" />
        </mxCell>
        <mxCell id="Ce2TWr0NqGsEhepz2807-2" value="TablesRepository" style="swimlane;childLayout=stackLayout;horizontal=1;startSize=50;horizontalStack=0;rounded=1;fontSize=14;fontStyle=0;strokeWidth=2;resizeParent=0;resizeLast=1;shadow=0;dashed=0;align=center;arcSize=4;whiteSpace=wrap;html=1;" vertex="1" parent="1">
          <mxGeometry x="810" y="410" width="130" height="120" as="geometry" />
        </mxCell>
        <mxCell id="Ce2TWr0NqGsEhepz2807-3" value="- db: File" style="align=left;strokeColor=none;fillColor=none;spacingLeft=4;fontSize=12;verticalAlign=top;resizable=0;rotatable=0;part=1;html=1;" vertex="1" parent="Ce2TWr0NqGsEhepz2807-2">
          <mxGeometry y="50" width="130" height="70" as="geometry" />
        </mxCell>
        <mxCell id="Ce2TWr0NqGsEhepz2807-4" value="VisitorsRepository" style="swimlane;childLayout=stackLayout;horizontal=1;startSize=50;horizontalStack=0;rounded=1;fontSize=14;fontStyle=0;strokeWidth=2;resizeParent=0;resizeLast=1;shadow=0;dashed=0;align=center;arcSize=4;whiteSpace=wrap;html=1;" vertex="1" parent="1">
          <mxGeometry x="95" y="550" width="130" height="120" as="geometry" />
        </mxCell>
        <mxCell id="Ce2TWr0NqGsEhepz2807-5" value="db: File" style="align=left;strokeColor=none;fillColor=none;spacingLeft=4;fontSize=12;verticalAlign=top;resizable=0;rotatable=0;part=1;html=1;" vertex="1" parent="Ce2TWr0NqGsEhepz2807-4">
          <mxGeometry y="50" width="130" height="70" as="geometry" />
        </mxCell>
        <mxCell id="Ce2TWr0NqGsEhepz2807-13" value="" style="edgeStyle=entityRelationEdgeStyle;fontSize=12;html=1;endArrow=ERoneToMany;rounded=0;exitX=0.5;exitY=0;exitDx=0;exitDy=0;" edge="1" parent="1" source="D7ge4e6ua518F_ma1OPR-18" target="D7ge4e6ua518F_ma1OPR-23">
          <mxGeometry width="100" height="100" relative="1" as="geometry">
            <mxPoint x="280" y="460" as="sourcePoint" />
            <mxPoint x="165" y="320" as="targetPoint" />
            <Array as="points">
              <mxPoint x="200" y="290" />
              <mxPoint x="180" y="410" />
              <mxPoint x="180" y="410" />
              <mxPoint x="200" y="330" />
              <mxPoint x="190" y="320" />
            </Array>
          </mxGeometry>
        </mxCell>
        <mxCell id="Ce2TWr0NqGsEhepz2807-15" value="" style="edgeStyle=entityRelationEdgeStyle;fontSize=12;html=1;endArrow=ERmandOne;startArrow=ERmandOne;rounded=0;" edge="1" parent="1" source="D7ge4e6ua518F_ma1OPR-18" target="D7ge4e6ua518F_ma1OPR-21">
          <mxGeometry width="100" height="100" relative="1" as="geometry">
            <mxPoint x="410" y="490" as="sourcePoint" />
            <mxPoint x="510" y="390" as="targetPoint" />
          </mxGeometry>
        </mxCell>
        <mxCell id="Ce2TWr0NqGsEhepz2807-16" value="" style="edgeStyle=entityRelationEdgeStyle;fontSize=12;html=1;endArrow=ERoneToMany;rounded=0;entryX=1;entryY=0;entryDx=0;entryDy=0;dashed=1;exitX=0;exitY=0.5;exitDx=0;exitDy=0;" edge="1" parent="1" source="Ce2TWr0NqGsEhepz2807-2" target="D7ge4e6ua518F_ma1OPR-22">
          <mxGeometry width="100" height="100" relative="1" as="geometry">
            <mxPoint x="570" y="210" as="sourcePoint" />
            <mxPoint x="670" y="110" as="targetPoint" />
          </mxGeometry>
        </mxCell>
        <mxCell id="Ce2TWr0NqGsEhepz2807-18" value="" style="edgeStyle=entityRelationEdgeStyle;fontSize=12;html=1;endArrow=ERoneToMany;rounded=0;entryX=0;entryY=0.5;entryDx=0;entryDy=0;dashed=1;" edge="1" parent="1" source="D7ge4e6ua518F_ma1OPR-1" target="D7ge4e6ua518F_ma1OPR-18">
          <mxGeometry width="100" height="100" relative="1" as="geometry">
            <mxPoint x="760" y="440" as="sourcePoint" />
            <mxPoint x="680" y="680" as="targetPoint" />
          </mxGeometry>
        </mxCell>
        <mxCell id="Ce2TWr0NqGsEhepz2807-19" value="" style="edgeStyle=entityRelationEdgeStyle;fontSize=12;html=1;endArrow=ERoneToMany;rounded=0;entryX=-0.021;entryY=0.66;entryDx=0;entryDy=0;dashed=1;entryPerimeter=0;" edge="1" parent="1" source="Ce2TWr0NqGsEhepz2807-4" target="D7ge4e6ua518F_ma1OPR-19">
          <mxGeometry width="100" height="100" relative="1" as="geometry">
            <mxPoint x="155" y="690" as="sourcePoint" />
            <mxPoint x="240" y="475" as="targetPoint" />
          </mxGeometry>
        </mxCell>
        <mxCell id="Ce2TWr0NqGsEhepz2807-22" value="" style="endArrow=classic;html=1;rounded=0;dashed=1;exitX=1;exitY=0.25;exitDx=0;exitDy=0;entryX=0.5;entryY=0;entryDx=0;entryDy=0;" edge="1" parent="1" source="Ce2TWr0NqGsEhepz2807-24" target="D7ge4e6ua518F_ma1OPR-21">
          <mxGeometry width="50" height="50" relative="1" as="geometry">
            <mxPoint x="760" y="280" as="sourcePoint" />
            <mxPoint x="720" y="390" as="targetPoint" />
            <Array as="points">
              <mxPoint x="670" y="120" />
            </Array>
          </mxGeometry>
        </mxCell>
        <mxCell id="Ce2TWr0NqGsEhepz2807-23" value="" style="endArrow=classic;html=1;rounded=0;dashed=1;exitX=1;exitY=0.25;exitDx=0;exitDy=0;entryX=0;entryY=0.5;entryDx=0;entryDy=0;" edge="1" parent="1" source="D7ge4e6ua518F_ma1OPR-23" target="Ce2TWr0NqGsEhepz2807-24">
          <mxGeometry width="50" height="50" relative="1" as="geometry">
            <mxPoint x="265" y="120" as="sourcePoint" />
            <mxPoint x="670" y="415" as="targetPoint" />
            <Array as="points" />
          </mxGeometry>
        </mxCell>
        <mxCell id="Ce2TWr0NqGsEhepz2807-24" value="loadTables&lt;br&gt;book" style="shape=rhombus;perimeter=rhombusPerimeter;whiteSpace=wrap;html=1;align=center;" vertex="1" parent="1">
          <mxGeometry x="610" y="90" width="120" height="60" as="geometry" />
        </mxCell>
        <mxCell id="Ce2TWr0NqGsEhepz2807-25" value="bookTable&lt;br&gt;ChangeTable" style="shape=rhombus;perimeter=rhombusPerimeter;whiteSpace=wrap;html=1;align=center;" vertex="1" parent="1">
          <mxGeometry x="280" y="250" width="120" height="60" as="geometry" />
        </mxCell>
        <mxCell id="Ce2TWr0NqGsEhepz2807-26" value="getUserInfo&lt;br&gt;saveVisitors" style="shape=rhombus;perimeter=rhombusPerimeter;whiteSpace=wrap;html=1;align=center;" vertex="1" parent="1">
          <mxGeometry x="240" y="540" width="120" height="60" as="geometry" />
        </mxCell>
        <mxCell id="Ce2TWr0NqGsEhepz2807-27" value="getOrdersInfo&lt;br&gt;saveOrders" style="shape=rhombus;perimeter=rhombusPerimeter;whiteSpace=wrap;html=1;align=center;" vertex="1" parent="1">
          <mxGeometry x="230" y="430" width="120" height="60" as="geometry" />
        </mxCell>
      </root>
    </mxGraphModel>
  </diagram>
</mxfile>
